# xmcd CD database file
#
# Track frame offsets:
#	150
#	28127
#	53752
#	83440
#	108470
#	131532
#	150685
#	172957
#	189535
#	210980
#	227700
#
# Disc length: 3380 seconds
#
# Revision: 0
# Processed by: cddbd v1.5.1PL2 Copyright (c) Steve Scherf et al.
# Submitted via: CDex 1.51
#
DISCID=830d320b
DTITLE=Buddy Charles - We're Here
DYEAR=2005
DGENRE=Jazz
TTITLE0=We're Here
TTITLE1=Freddie Freeloader
TTITLE2=Quiet Knowing
TTITLE3=Navada Bravada
TTITLE4=Long Story Short
TTITLE5=We'll Be Together Again
TTITLE6=Sweet Birds Yard
TTITLE7=Lester Leaps Out
TTITLE8=Particles and Forces
TTITLE9=When I Close My Eyes
TTITLE10=Dama de la Noche
EXTD=YEAR: 2005
EXTT0=
EXTT1=
EXTT2=
EXTT3=
EXTT4=
EXTT5=
EXTT6=
EXTT7=
EXTT8=
EXTT9=
EXTT10=
PLAYORDER=
